<?xml version="1.0" standalone="no"?>
<!DOCTYPE svg PUBLIC "-//W3C//DTD SVG 20010904//EN"
 "http://www.w3.org/TR/2001/REC-SVG-20010904/DTD/svg10.dtd">
<svg version="1.0" xmlns="http://www.w3.org/2000/svg"
 width="1200.000000pt" height="1200.000000pt" viewBox="0 0 1200.000000 1200.000000"
 preserveAspectRatio="xMidYMid meet">
<metadata>
Created by potrace 1.11, written by Peter Selinger 2001-2013
</metadata>
<g transform="translate(0.000000,1200.000000) scale(0.100000,-0.100000)"
fill="#000000" stroke="none">
<path d="M5699 11386 c-2 -2 -54 -6 -115 -10 -61 -4 -121 -8 -135 -11 -13 -2
-51 -6 -84 -10 -67 -7 -69 -7 -249 -36 -365 -58 -735 -160 -1106 -306 -152
-59 -529 -239 -660 -314 -287 -163 -562 -355 -825 -573 -148 -124 -508 -482
-639 -635 -751 -885 -1201 -1994 -1274 -3138 -9 -155 -9 -588 1 -733 64 -924
358 -1803 865 -2580 207 -318 422 -581 707 -865 539 -540 1144 -938 1845
-1213 210 -83 526 -182 720 -226 36 -8 94 -22 130 -30 36 -8 135 -26 220 -40
137 -22 191 -29 365 -50 220 -27 974 -28 1058 -1 7 2 42 6 80 9 197 17 521 77
783 146 767 199 1511 590 2129 1118 132 113 412 389 534 527 123 139 263 314
344 430 194 277 307 467 446 745 309 621 494 1287 548 1975 16 200 8 864 -12
986 -2 13 -6 51 -10 84 -25 237 -82 529 -161 815 -332 1204 -1111 2290 -2154
3001 -783 534 -1653 842 -2605 924 -133 11 -736 20 -746 11z m640 -200 c117
-7 139 -10 326 -31 434 -51 950 -192 1390 -380 992 -424 1847 -1170 2408
-2102 336 -558 567 -1182 671 -1818 26 -157 30 -188 41 -295 4 -36 9 -76 11
-90 23 -150 23 -803 0 -950 -3 -14 -7 -56 -11 -95 -11 -119 -43 -323 -74 -476
-313 -1539 -1304 -2851 -2706 -3580 -614 -319 -1264 -504 -1995 -568 -106 -10
-789 -7 -845 2 -16 3 -57 8 -90 11 -70 7 -211 24 -240 30 -11 2 -40 7 -65 10
-233 36 -544 114 -820 206 -622 208 -1164 512 -1690 949 -148 123 -509 483
-631 631 -312 376 -552 756 -751 1185 -188 406 -347 937 -409 1360 -6 44 -12
87 -14 95 -1 8 -8 65 -14 125 -7 61 -14 124 -17 140 -3 17 -7 190 -9 385 -3
320 0 399 20 605 8 81 34 268 45 330 5 28 12 66 15 85 4 19 17 87 31 150 131
612 390 1227 738 1754 648 981 1607 1715 2721 2081 343 113 743 200 1060 230
39 4 81 8 95 11 13 2 87 6 165 10 77 4 141 7 142 8 6 5 406 -2 502 -8z"/>
<path d="M5837 10705 c-1 -1 -59 -5 -128 -9 -145 -8 -173 -10 -369 -37 -674
-91 -1367 -353 -1935 -732 -291 -194 -477 -347 -735 -606 -394 -394 -656 -759
-896 -1244 -268 -544 -414 -1072 -474 -1717 -9 -101 -5 -734 5 -810 3 -25 13
-97 21 -160 7 -63 16 -126 19 -140 2 -14 13 -75 24 -137 120 -670 423 -1363
845 -1928 764 -1025 1883 -1690 3136 -1864 236 -33 391 -42 670 -42 140 1 266
3 280 5 14 2 63 7 110 11 473 35 1007 170 1465 368 753 326 1416 852 1916
1522 337 451 599 986 753 1535 186 665 222 1369 106 2065 -212 1269 -950 2404
-2038 3135 -236 157 -592 345 -852 448 -386 153 -824 264 -1210 307 -30 3 -66
8 -80 10 -68 11 -621 28 -633 20z m523 -141 c979 -80 1879 -452 2625 -1088
132 -113 373 -353 491 -491 528 -616 871 -1321 1028 -2115 39 -197 53 -299 76
-565 8 -100 6 -628 -3 -675 -3 -14 -8 -59 -12 -100 -30 -344 -130 -783 -259
-1125 -243 -653 -615 -1222 -1112 -1705 -640 -622 -1433 -1038 -2304 -1209
-159 -31 -250 -45 -355 -56 -33 -4 -71 -8 -84 -10 -108 -18 -542 -24 -746 -11
-1438 91 -2760 865 -3548 2077 -326 502 -540 1029 -656 1619 -65 334 -85 549
-84 925 3 964 328 1928 916 2710 244 325 590 670 922 920 880 662 2006 988
3105 899z"/>
<path d="M5940 10135 l0 -305 60 0 60 0 0 305 0 305 -60 0 -60 0 0 -305z"/>
<path d="M5504 10372 c-7 -5 -7 -43 2 -132 16 -151 21 -190 25 -194 2 -2 23
-1 47 2 50 5 49 -4 27 187 -8 72 -15 133 -15 138 0 9 -72 9 -86 -1z"/>
<path d="M6401 10253 c-7 -70 -15 -145 -18 -165 -5 -41 -11 -38 74 -42 20 -1
25 26 39 182 14 155 16 147 -37 150 l-45 3 -13 -128z"/>
<path d="M6870 10314 c0 -8 -60 -289 -65 -305 -4 -13 5 -19 41 -28 26 -7 48
-10 50 -8 7 7 68 317 63 321 -6 7 -89 25 -89 20z"/>
<path d="M5063 10303 c-13 -2 -23 -10 -23 -16 1 -36 67 -308 75 -308 6 -1 27
2 48 5 44 7 44 -10 -3 201 -28 130 -30 132 -97 118z"/>
<path d="M4635 10186 c-22 -7 -39 -17 -39 -22 1 -5 23 -75 50 -156 51 -158 50
-157 110 -135 l31 12 -50 158 c-28 86 -53 157 -56 156 -3 0 -24 -6 -46 -13z"/>
<path d="M7317 10193 c-6 -9 -97 -296 -97 -304 0 -8 81 -31 87 -25 5 5 60 167
88 259 14 46 14 48 -8 56 -48 18 -66 21 -70 14z"/>
<path d="M4208 10023 c-21 -9 -38 -21 -38 -28 0 -14 117 -276 128 -287 9 -9
82 21 82 34 0 15 -124 298 -130 297 -3 -1 -22 -8 -42 -16z"/>
<path d="M7741 10018 c-5 -13 -34 -79 -65 -147 -31 -69 -56 -128 -56 -132 0
-4 12 -12 28 -17 15 -5 34 -13 43 -17 12 -4 20 4 32 32 9 21 38 89 66 151 l50
112 -39 20 c-49 25 -49 25 -59 -2z"/>
<path d="M8119 9782 c-31 -53 -100 -173 -153 -266 -53 -93 -96 -169 -94 -170
16 -11 98 -56 102 -56 2 0 27 39 54 88 28 48 95 166 151 262 55 96 97 177 93
181 -4 3 -27 18 -52 32 l-45 26 -56 -97z"/>
<path d="M3768 9844 c-21 -13 -38 -28 -38 -33 0 -5 22 -47 48 -93 27 -46 93
-159 147 -253 54 -93 99 -172 101 -173 4 -6 104 50 104 58 0 7 -32 64 -175
310 -43 74 -88 152 -99 172 -24 44 -37 46 -88 12z"/>
<path d="M5967 9673 c-3 -5 -8 -134 -12 -288 -4 -154 -8 -302 -10 -330 -2 -27
-6 -158 -10 -290 -3 -132 -8 -280 -10 -330 -2 -49 -7 -182 -10 -295 -3 -113
-8 -263 -10 -335 -7 -215 -14 -439 -20 -635 -3 -102 -8 -230 -10 -285 -2 -55
-7 -212 -11 -350 -4 -137 -8 -266 -10 -285 -1 -19 -2 -50 -3 -69 l-1 -34 -130
7 -130 7 0 -169 0 -170 126 6 127 5 -6 -147 -5 -146 170 0 170 0 -6 155 -6
155 47 1 c27 0 55 2 63 3 8 2 96 7 195 11 99 4 195 8 213 10 19 1 113 6 210
10 98 4 193 8 212 10 19 2 109 6 200 9 91 4 192 9 225 11 33 2 128 7 210 10
83 3 173 8 200 10 28 2 118 7 200 10 83 3 182 8 220 10 39 3 131 7 205 11 74
3 137 8 139 10 17 17 6 34 -22 35 -18 1 -45 2 -62 4 -16 1 -109 6 -205 10 -96
4 -191 8 -210 10 -19 2 -114 6 -210 10 -96 4 -191 8 -210 10 -19 2 -116 6
-215 10 -99 4 -187 9 -195 10 -8 2 -96 6 -195 10 -99 4 -196 8 -215 10 -19 2
-114 6 -211 10 -96 4 -191 8 -210 10 -19 2 -113 6 -209 10 -96 4 -176 8 -176
9 -1 0 -5 98 -8 216 -4 118 -9 267 -11 330 -2 63 -7 196 -10 295 -3 99 -7 245
-10 325 -3 80 -7 219 -10 310 -6 190 -13 422 -20 630 -3 80 -7 222 -10 315 -3
94 -8 239 -11 323 l-6 152 186 0 186 0 0 50 0 49 -132 3 -133 3 59 45 c133
102 162 128 183 166 30 52 30 117 0 175 -56 109 -236 132 -325 43 -19 -19 -36
-34 -38 -34 -2 0 -4 34 -4 75 l0 75 -34 0 c-19 0 -37 -3 -39 -7z m320 -175
c28 -26 31 -86 7 -123 -9 -14 -58 -57 -110 -95 -51 -39 -98 -79 -104 -90 -20
-37 -26 -13 -29 104 l-2 116 44 0 c44 0 45 0 56 45 6 24 19 49 29 54 30 18 84
13 109 -11z"/>
<path d="M5760 9602 c0 -38 -71 -82 -131 -82 -27 0 -29 -2 -29 -40 l0 -40 70
0 70 0 0 -205 0 -205 60 0 60 0 0 295 0 295 -50 0 c-42 0 -50 -3 -50 -18z"/>
<path d="M3425 9574 c-11 -9 -28 -21 -38 -29 -17 -12 -11 -23 80 -147 l97
-135 39 25 c21 14 36 31 33 37 -4 11 -170 243 -184 257 -4 4 -16 0 -27 -8z"/>
<path d="M8458 9457 l-97 -132 37 -32 37 -32 18 22 c9 12 54 73 99 136 l81
113 -24 19 c-53 42 -48 45 -151 -94z"/>
<path d="M3052 9273 c-18 -16 -32 -32 -32 -36 0 -4 48 -61 107 -127 l107 -118
38 30 38 30 -49 56 c-28 32 -78 87 -113 125 l-63 67 -33 -27z"/>
<path d="M8807 9180 c-59 -66 -107 -123 -106 -127 0 -5 15 -20 33 -35 l33 -28
111 123 111 122 -32 33 c-17 17 -34 32 -37 32 -3 0 -54 -54 -113 -120z"/>
<path d="M4100 9232 c0 -38 -71 -82 -131 -82 -27 0 -29 -2 -29 -40 l0 -40 70
0 70 0 0 -205 0 -205 60 0 60 0 0 295 0 295 -50 0 c-42 0 -50 -3 -50 -18z"/>
<path d="M4490 9232 c0 -37 -68 -82 -124 -82 -35 0 -36 -1 -36 -40 l0 -40 70
0 70 0 0 -205 0 -205 60 0 60 0 0 295 0 295 -50 0 c-42 0 -50 -3 -50 -18z"/>
<path d="M7690 9232 c0 -37 -68 -82 -124 -82 -35 0 -36 -1 -36 -40 l0 -40 70
0 70 0 0 -205 0 -205 60 0 60 0 0 295 0 295 -50 0 c-42 0 -50 -3 -50 -18z"/>
<path d="M2723 8943 l-30 -38 117 -105 c64 -58 123 -105 130 -105 7 0 23 14
36 31 l25 31 -103 94 c-57 51 -113 101 -124 112 -21 18 -22 18 -51 -20z"/>
<path d="M9122 8867 l-123 -111 34 -34 35 -35 121 108 c67 60 121 111 121 115
0 3 -15 20 -32 37 l-33 31 -123 -111z"/>
<path d="M2433 8585 c-13 -19 -23 -37 -23 -39 0 -4 231 -175 256 -189 7 -4 23
10 38 33 l26 39 -126 91 c-69 50 -130 93 -137 95 -7 3 -22 -11 -34 -30z"/>
<path d="M9460 8565 c-41 -31 -99 -72 -127 -93 -29 -20 -53 -41 -53 -46 0 -5
11 -24 25 -42 l26 -33 107 76 c59 42 119 87 134 99 l26 21 -25 37 c-15 20 -29
36 -32 36 -3 -1 -40 -25 -81 -55z"/>
<path d="M2147 8219 c-16 -29 -25 -55 -20 -59 4 -4 69 -43 143 -85 74 -43 189
-109 254 -147 66 -38 122 -65 126 -61 4 4 19 28 33 53 l26 45 -82 47 c-45 25
-165 94 -265 152 -101 58 -185 106 -185 106 -1 0 -15 -23 -30 -51z"/>
<path d="M9725 8212 c-55 -32 -173 -99 -262 -151 -90 -51 -163 -95 -163 -97 0
-2 12 -26 28 -54 17 -32 32 -48 41 -45 14 5 262 148 433 250 l86 51 -30 52
c-16 29 -30 52 -31 52 -1 0 -47 -26 -102 -58z"/>
<path d="M8844 7991 c-47 -22 -77 -59 -93 -116 -20 -71 -18 -75 43 -75 54 0
54 0 60 36 10 49 38 74 84 74 51 0 82 -32 82 -83 0 -53 -19 -77 -119 -151
-118 -87 -161 -148 -161 -227 l0 -29 200 0 200 0 0 50 0 50 -125 0 c-79 0
-125 4 -125 10 0 6 30 32 67 58 104 74 150 120 169 168 33 87 -4 192 -83 229
-56 27 -148 30 -199 6z"/>
<path d="M2910 7962 c0 -38 -71 -82 -131 -82 -27 0 -29 -2 -29 -40 l0 -40 70
0 70 0 0 -205 0 -205 60 0 60 0 0 295 0 295 -50 0 c-42 0 -50 -3 -50 -18z"/>
<path d="M3269 7971 c-50 -16 -79 -43 -106 -99 -26 -53 -28 -66 -28 -182 0
-144 12 -195 58 -247 39 -44 82 -63 142 -63 60 0 103 19 142 63 46 52 58 103
58 247 0 117 -2 129 -28 182 -35 71 -76 99 -155 104 -31 2 -69 0 -83 -5z m115
-106 c28 -30 36 -72 35 -190 -1 -117 -16 -175 -51 -194 -36 -20 -78 -5 -97 34
-17 35 -26 190 -17 268 12 96 78 138 130 82z"/>
<path d="M1972 7785 l-21 -43 147 -66 c81 -36 150 -66 154 -66 7 0 38 65 38
80 0 7 -56 33 -221 105 l-76 33 -21 -43z"/>
<path d="M9861 7764 c-79 -35 -146 -66 -148 -67 -3 -4 25 -78 33 -86 4 -4 285
117 297 129 7 6 -28 92 -36 89 -1 0 -67 -29 -146 -65z"/>
<path d="M1807 7356 c-9 -25 -13 -47 -9 -50 9 -5 296 -96 304 -96 3 0 13 20
21 44 l15 43 -147 48 c-80 26 -151 50 -157 52 -7 2 -19 -16 -27 -41z"/>
<path d="M10022 7350 c-79 -26 -145 -50 -148 -53 -7 -7 17 -87 27 -87 14 0
294 92 302 99 9 9 -16 84 -29 87 -5 1 -73 -19 -152 -46z"/>
<path d="M1686 6919 c-10 -53 -8 -57 47 -69 196 -44 268 -57 271 -51 2 3 7 24
10 47 l7 40 -148 32 c-81 18 -155 32 -164 32 -10 0 -19 -12 -23 -31z"/>
<path d="M10125 6918 c-77 -16 -141 -31 -143 -32 -1 -2 2 -24 9 -50 9 -35 15
-45 28 -42 9 3 72 17 141 31 179 38 168 32 157 83 -10 51 -3 51 -192 10z"/>
<path d="M1615 6455 c-4 -25 -6 -47 -4 -49 2 -2 38 -7 79 -10 41 -4 89 -9 105
-11 104 -13 145 -15 146 -8 0 4 2 26 5 49 l5 40 -128 13 c-70 7 -145 15 -165
18 l-37 5 -6 -47z"/>
<path d="M10270 6490 c-36 -4 -96 -11 -135 -15 -38 -4 -73 -10 -76 -14 -3 -3
-4 -25 -1 -49 l4 -43 37 4 c20 3 94 11 164 18 l128 13 -3 45 c-3 53 -6 54
-118 41z"/>
<path d="M9319 6281 c-70 -23 -114 -72 -125 -139 l-7 -42 57 0 c53 0 56 1 56
25 0 33 42 75 73 75 42 0 77 -36 77 -78 0 -20 -4 -42 -8 -48 -11 -18 -48 -34
-76 -34 -23 0 -26 -4 -26 -39 0 -37 1 -39 41 -45 50 -8 89 -45 89 -84 0 -66
-81 -113 -134 -78 -14 8 -30 31 -37 51 -13 34 -14 35 -67 35 l-54 0 7 -37 c19
-101 85 -152 201 -153 144 -1 240 130 186 253 -12 26 -25 47 -29 47 -4 0 -15
5 -23 10 -12 7 -10 14 15 40 26 27 30 39 30 88 0 65 -26 112 -77 138 -36 19
-132 27 -169 15z"/>
<path d="M2513 6261 c-75 -35 -111 -94 -112 -187 -2 -114 77 -189 191 -182 38
3 64 11 79 24 l22 19 -5 -47 c-6 -55 -29 -94 -63 -110 -33 -15 -74 -2 -87 27
-10 23 -17 25 -70 25 -57 0 -59 -1 -53 -22 32 -108 153 -158 260 -109 84 39
126 119 133 256 7 145 -26 244 -99 296 -44 31 -140 36 -196 10z m153 -102 c9
-10 19 -41 22 -68 4 -46 2 -53 -26 -81 -39 -38 -83 -40 -117 -5 -35 34 -36
122 -2 152 12 11 28 22 36 25 26 8 70 -4 87 -23z"/>
<path d="M1550 5990 l0 -60 305 0 305 0 0 60 0 60 -305 0 -305 0 0 -60z"/>
<path d="M9840 5990 l0 -60 305 0 305 0 0 60 0 60 -305 0 -305 0 0 -60z"/>
<path d="M1765 5596 c-55 -7 -101 -13 -102 -14 -2 -1 -15 -2 -29 -2 -26 0 -26
-1 -19 -47 4 -27 8 -49 9 -50 1 -1 33 2 71 7 39 4 103 11 142 15 123 11 118 8
108 64 -7 40 -8 41 -43 40 -21 -1 -82 -7 -137 -13z"/>
<path d="M10060 5582 c0 -17 -3 -37 -6 -46 -7 -18 9 -22 106 -31 36 -3 90 -8
120 -11 30 -3 65 -7 76 -9 25 -6 34 10 34 61 0 26 -4 34 -17 34 -10 0 -49 5
-88 10 -38 4 -105 12 -147 15 l-78 7 0 -30z"/>
<path d="M1854 5160 c-188 -40 -177 -34 -169 -83 4 -23 9 -44 11 -46 2 -3 70
10 152 28 81 17 153 31 160 31 11 0 12 10 7 43 -8 46 -13 57 -23 56 -4 0 -66
-13 -138 -29z"/>
<path d="M9994 5151 c-4 -22 -6 -44 -6 -48 1 -7 188 -52 281 -68 l39 -6 7 41
c4 23 3 45 -1 49 -5 4 -67 20 -139 35 -71 15 -140 30 -152 33 -20 4 -23 0 -29
-36z"/>
<path d="M1935 4722 c-151 -51 -150 -49 -121 -113 l11 -26 156 51 156 51 -11
40 c-8 28 -17 41 -31 42 -11 1 -83 -19 -160 -45z"/>
<path d="M9880 4729 c-6 -23 -10 -42 -8 -44 2 -2 62 -22 133 -45 72 -22 140
-45 153 -50 19 -8 24 -6 32 16 28 72 35 65 -127 117 -82 26 -154 47 -161 47
-6 0 -16 -18 -22 -41z"/>
<path d="M2987 4546 c-49 -18 -76 -43 -93 -83 -26 -61 -10 -133 36 -166 20
-14 20 -14 -5 -31 -113 -74 -71 -259 67 -297 102 -27 209 11 252 91 42 77 33
147 -26 202 -29 27 -30 31 -15 39 26 15 47 63 47 107 0 47 -32 98 -78 125 -42
25 -136 32 -185 13z m128 -101 c30 -30 32 -64 4 -99 -27 -34 -71 -35 -104 -1
-14 13 -25 31 -25 39 0 73 76 111 125 61z m10 -240 c36 -35 34 -88 -4 -126
-18 -17 -40 -29 -56 -29 -40 0 -85 50 -85 95 0 76 91 115 145 60z"/>
<path d="M8924 4518 c-14 -24 -36 -59 -49 -78 -12 -19 -50 -81 -84 -137 -53
-89 -61 -107 -61 -152 l0 -51 115 0 115 0 0 -65 0 -65 60 0 60 0 0 65 0 65 33
0 c32 0 33 1 33 45 0 44 -1 45 -33 45 l-33 0 0 185 0 185 -65 0 -65 0 -26 -42z
m40 -145 c-1 -38 -2 -94 -3 -125 l-1 -58 -70 0 -71 0 17 33 c21 41 124 217
127 217 2 0 2 -30 1 -67z"/>
<path d="M2100 4308 c-74 -33 -138 -63 -142 -66 -3 -4 3 -26 15 -48 l22 -41
95 43 c52 24 119 53 148 66 28 12 52 26 52 31 0 21 -31 77 -42 76 -7 0 -74
-27 -148 -61z"/>
<path d="M9727 4333 c-8 -21 -12 -41 -9 -45 11 -11 273 -128 287 -128 11 0 52
77 44 83 -16 11 -286 127 -295 127 -7 0 -19 -17 -27 -37z"/>
<path d="M2420 3994 c-118 -69 -234 -135 -257 -146 -24 -12 -43 -25 -43 -29 0
-16 53 -99 64 -99 6 0 20 6 31 14 11 7 40 24 65 38 201 112 420 243 420 251 0
15 -49 97 -58 97 -4 0 -104 -57 -222 -126z"/>
<path d="M9327 4069 c-16 -28 -27 -52 -25 -53 1 -2 80 -47 173 -101 94 -54
211 -122 260 -150 99 -58 88 -59 133 16 l22 36 -113 65 c-329 192 -410 238
-416 238 -3 0 -19 -23 -34 -51z"/>
<path d="M2538 3537 c-70 -51 -127 -96 -127 -101 -1 -5 11 -24 25 -43 l25 -33
39 27 c21 16 81 59 134 97 56 41 93 73 89 80 -16 27 -47 66 -52 66 -3 -1 -63
-42 -133 -93z"/>
<path d="M9303 3597 c-13 -18 -23 -37 -23 -43 1 -7 237 -181 260 -191 3 -2 17
15 32 36 l28 39 -126 91 c-69 51 -130 94 -137 97 -7 2 -22 -11 -34 -29z"/>
<path d="M4090 3290 l0 -50 145 0 145 0 -46 -62 c-83 -113 -142 -250 -159
-370 l-7 -48 60 0 59 0 7 53 c16 122 74 257 160 373 43 59 52 79 51 110 l-1
39 -207 3 -207 2 0 -50z"/>
<path d="M7540 3338 c0 -2 -9 -70 -20 -153 -11 -82 -20 -153 -20 -157 0 -15
103 -8 120 7 10 9 33 18 52 21 27 5 40 1 63 -18 58 -51 37 -177 -33 -192 -42
-10 -82 9 -95 44 -11 29 -14 30 -70 30 l-59 0 6 -32 c8 -39 49 -94 84 -112 68
-35 177 -31 234 8 91 61 114 215 46 302 -44 55 -151 81 -210 50 -15 -8 -28
-12 -31 -10 -2 2 1 29 6 59 l10 55 124 0 123 0 0 50 0 50 -165 0 c-91 0 -165
-1 -165 -2z"/>
<path d="M2813 3187 l-123 -112 34 -34 35 -34 63 56 c35 30 90 80 123 111 l60
54 -35 35 -35 35 -122 -111z"/>
<path d="M9032 3263 l-30 -39 119 -108 c68 -60 126 -106 133 -103 8 3 23 19
34 35 l21 29 -97 89 c-53 48 -109 98 -123 111 l-26 24 -31 -38z"/>
<path d="M3129 2874 c-57 -64 -105 -119 -107 -123 -1 -4 13 -21 31 -39 l33
-32 111 124 111 124 -32 31 c-17 17 -34 31 -37 31 -3 0 -53 -52 -110 -116z"/>
<path d="M8730 2961 c-40 -34 -49 -18 89 -171 52 -58 95 -106 96 -108 1 -1 18
13 39 30 l37 33 -111 123 c-61 67 -112 122 -113 122 -1 0 -18 -13 -37 -29z"/>
<path d="M5935 2918 c-54 -20 -83 -48 -112 -106 -26 -53 -28 -65 -28 -182 0
-174 28 -240 120 -281 165 -75 339 92 270 258 -21 50 -42 72 -90 94 -52 24
-101 24 -148 0 -20 -10 -39 -16 -41 -12 -2 3 2 28 9 56 22 83 89 121 135 75
11 -11 20 -24 20 -30 0 -6 27 -10 61 -10 58 0 60 1 54 23 -13 43 -41 82 -73
100 -39 23 -135 31 -177 15z m104 -303 c61 -31 55 -159 -9 -185 -94 -39 -166
96 -91 171 33 32 58 36 100 14z"/>
<path d="M3467 2587 l-96 -132 32 -27 c17 -16 36 -28 42 -28 5 1 52 59 103
131 99 138 99 139 44 171 l-29 17 -96 -132z"/>
<path d="M8397 2692 c-37 -25 -37 -25 -20 -51 29 -45 175 -241 179 -241 2 0
20 10 39 23 34 22 44 40 26 52 -5 3 -46 57 -91 120 -45 63 -84 116 -88 119 -4
2 -24 -8 -45 -22z"/>
<path d="M4006 2657 c-10 -17 -51 -88 -91 -157 -40 -69 -99 -172 -133 -230
l-60 -104 49 -28 c26 -15 52 -28 56 -28 4 0 19 22 34 48 14 26 78 138 142 250
65 111 120 209 123 216 5 13 -69 66 -92 66 -5 0 -18 -15 -28 -33z"/>
<path d="M7918 2664 c-27 -13 -48 -27 -48 -30 0 -3 48 -87 106 -187 58 -100
126 -217 151 -259 25 -43 47 -78 49 -78 6 0 74 36 92 48 14 9 14 8 -155 299
-31 54 -73 127 -93 163 -20 35 -41 65 -46 67 -5 1 -30 -9 -56 -23z"/>
<path d="M4229 2131 l-66 -149 44 -21 44 -21 30 67 c17 38 48 107 69 155 l38
87 -39 15 c-22 9 -43 16 -47 16 -4 0 -37 -67 -73 -149z"/>
<path d="M7655 2263 c-16 -8 -32 -17 -34 -19 -2 -2 27 -71 64 -153 l68 -149
41 18 c23 10 40 24 38 31 -7 36 -127 289 -136 289 -6 -1 -24 -8 -41 -17z"/>
<path d="M5940 1845 l0 -305 60 0 60 0 0 305 0 305 -60 0 -60 0 0 -305z"/>
<path d="M4694 2116 c-2 -6 -26 -77 -53 -158 l-49 -147 46 -15 c25 -9 46 -15
48 -13 1 1 23 70 49 152 26 83 49 153 51 156 2 4 -17 13 -42 22 -33 11 -47 12
-50 3z"/>
<path d="M7266 2114 c-22 -8 -41 -16 -43 -18 -4 -4 84 -291 93 -308 7 -11 96
23 91 36 -2 6 -25 76 -51 156 -26 79 -48 145 -49 146 -1 1 -20 -5 -41 -12z"/>
<path d="M5076 1873 c-44 -211 -45 -189 5 -197 23 -4 46 -3 50 1 4 4 19 67 33
138 15 72 29 140 32 152 5 18 0 23 -33 32 -21 6 -43 11 -48 11 -6 0 -23 -62
-39 -137z"/>
<path d="M6835 2001 c-25 -5 -29 -11 -27 -31 5 -38 62 -294 67 -298 2 -2 22
-1 44 3 50 8 49 6 16 162 -14 65 -28 130 -32 146 -6 28 -13 30 -68 18z"/>
<path d="M5529 1938 c-3 -12 -9 -60 -19 -163 -6 -66 -13 -130 -15 -142 -2 -13
-1 -23 3 -24 4 0 26 -2 50 -5 39 -5 42 -4 43 18 0 12 2 30 3 38 4 16 11 81 22
196 l6 71 -32 7 c-33 6 -59 8 -61 4z"/>
<path d="M6408 1933 c-31 -5 -31 -2 -19 -98 5 -38 12 -104 16 -145 4 -41 9
-79 12 -84 5 -8 80 -2 90 7 4 4 -9 148 -22 237 -2 14 -4 40 -4 58 -1 34 -5 35
-73 25z"/>
</g>
</svg>
